
<svg width="1227px" height="200px" viewBox="0 0 1227 200" version="1.1" xmlns="http://www.w3.org/2000/svg" xmlns:xlink="http://www.w3.org/1999/xlink">
    <!-- Generator: Sketch 50.2 (55047) - http://www.bohemiancoding.com/sketch -->
    <desc>Created with Sketch.</desc>
    <defs></defs>
    <g id="Page-1" stroke="none" stroke-width="1" fill="none" fill-rule="evenodd">
        <g id="Cloudpigeon">
            <text id="name" font-family="HiraginoSansGB-W3, Hiragino Sans GB" font-size="144" font-weight="300">
                <tspan x="340.152" y="139" fill="#D9415D">Cloud</tspan>
                <tspan x="754.44" y="139" fill="#000000">pigeon</tspan>
            </text>
            <g id="peace" fill-rule="nonzero">
                <path d="M132.054545,121.538462 L132.054545,173.333333 L216.621731,173.333333 C243.64797,173.302984 265.550522,152.062625 265.581818,125.854617 L265.581818,121.538462 L132.054545,121.538462 Z" id="Shape" fill="#F1BBC5"></path>
                <path d="M198.501433,9.23076923 C146.918617,9.28747096 105.112429,50.2399108 105.054545,100.769324 L105.054545,105.128205 L149.553113,105.128205 C201.135928,105.071503 242.942116,64.1190635 243,13.5896507 L243,9.23076923 L198.501433,9.23076923 Z" id="Shape" fill="#E88D9E"></path>
                <path d="M140.890909,78.2608031 C118.729209,78.2348176 100.769517,60.7302446 100.742856,39.1301468 L100.742856,30.4346718 C100.742856,13.6261037 86.7624733,0 69.5168824,0 C52.2712915,0 38.2909091,13.6261037 38.2909091,30.4346718 L38.2909091,100 C38.2909091,155.230482 84.224435,200 140.890909,200 C197.557383,200 243.490909,155.230482 243.490909,100 L243.490909,78.2608031 L140.890909,78.2608031 Z" id="Shape" fill="#D9415D"></path>
                <path d="M225.501433,34.8717949 C173.918617,34.9284966 132.112429,75.8809365 132.054545,126.410349 L132.054545,130.769231 L176.553113,130.769231 C228.135928,130.712529 269.942116,89.7600892 270,39.2306764 L270,34.8717949 L225.501433,34.8717949 Z" id="Shape" fill="#F1BBC5"></path>
                <path d="M64.8,44.1025641 C59.917891,44.1025641 55.9636364,40.2012999 55.9636364,35.3846154 C55.9636364,30.5679308 59.917891,26.6666667 64.8,26.6666667 C69.682109,26.6666667 73.6363636,30.5679308 73.6363636,35.3846154 C73.6363636,40.2012999 69.682109,44.1025641 64.8,44.1025641 Z" id="Shape" fill="#4B4A4A"></path>
                <path d="M42.550074,31.9255649 C41.2325108,31.1416225 39.5883052,31.0684276 38.2037384,31.7362678 L2.46935399,48.9658366 C0.262946163,50.0299386 -0.630609748,52.6185133 0.4728559,54.7467174 C0.90628548,55.5821485 1.60720602,56.2585701 2.46935399,56.671995 L38.2042619,73.9020686 C40.4106697,74.9661706 43.0955252,74.1090334 44.1989908,71.9808293 C44.5114998,71.3821457 44.6727273,70.722887 44.6727273,70.0510086 L44.6727273,35.5908613 C44.6716803,34.0966763 43.8676371,32.7095072 42.550074,31.9255649 Z" id="Shape" fill="#E88D9E"></path>
            </g>
        </g>
    </g>
</svg>